<?xml version="1.0" encoding="UTF-8" standalone="no"?>
<!-- Created with Inkscape (http://www.inkscape.org/) -->
<!-- https://www.svgrepo.com/svg/479234/gear-10 -->
<!-- https://www.svgrepo.com/svg/479355/gear -->
<!-- https://www.svgrepo.com/svg/479352/gear -->
<!-- https://fontesk.com/micro-font/ -->
<svg
	width="93"
	height="8"
	viewBox="0 0 93 8"
	version="1.1"
	xml:space="preserve"
	xmlns="http://www.w3.org/2000/svg"
	xmlns:svg="http://www.w3.org/2000/svg">
	<g id="Backgrounds" >
		<g id="Backgrounds: Machine">
			<path id="Backgrounds: Machine: e" class="background"
				d="M 89.999994,0.99999969 V 1.9999994 h -0.999998 v 0.9999997 h -1.000003 v 1 0.9999996 0.9999996 h 1.000003 v 1 h 0.999998 v 0.9999996 h 0.999999 V 6.9999983 h 1.000002 v -1 -0.9999996 h 0.999998 v -0.9999996 -1 H 91.999995 V 1.9999994 H 90.999993 V 0.99999969 Z" />
			<path id="Backgrounds: Machine: n" class="background"
				d="M 84.999994,0.99999969 V 1.9999994 h -0.999998 v 0.9999997 0.9999996 0.9999996 1 h 0.999998 v 0.9999996 h 0.999999 V 5.9999983 h 1.000002 v 0.9999996 h 0.999998 V 5.9999983 h 0.999999 v -1 V 3.9999987 2.9999991 H 87.999993 V 1.9999994 H 86.999995 V 0.99999969 h -1.000002 z" />
			<path id="Backgrounds: Machine: i" class="background"
				d="M 82.999994,-2.03125e-8 V 0.99999969 H 81.999995 V 1.9999994 h 0.999999 v 0.9999997 h -0.999999 v 0.9999996 0.9999996 1 h 0.999999 v 0.9999996 h 1.000002 V 5.9999983 h 0.999998 v -1 V 3.9999987 2.9999991 H 83.999996 V 1.9999994 h 0.999998 V 0.99999969 H 83.999996 V -2.03125e-8 Z" />
			<path id="Backgrounds: Machine: h" class="background"
				d="M 78.999992,-2.03125e-8 V 0.99999969 h -0.999998 v 0.99999961 0.9999998 0.9999996 0.9999996 1 h 0.999998 v 0.9999996 h 1.000002 V 5.9999983 h 0.999999 v 0.9999996 h 0.999998 V 5.9999983 h 1.000003 v -1 V 3.9999987 2.9999991 H 81.999991 V 1.9999993 H 80.999993 V 0.99999969 H 79.999994 V -2.03125e-8 Z" />
			<path id="Backgrounds: Machine: c" class="background"
				d="M 75.999997,0.99999969 V 1.9999994 h -0.999999 v 0.9999997 h -1.000002 v 0.9999996 1 h 1.000002 v 0.9999996 h 0.999999 v 0.9999996 h 0.999998 1.000002 V 5.9999983 h 0.999999 V 4.9999987 h -0.999999 v -1 -0.9999996 h 0.999999 V 1.9999994 H 77.999997 V 0.99999969 h -1.000002 z" />
			<path id="Backgrounds: Machine: a" class="background"
				d="M 71.999995,0.99999969 V 1.9999994 h -0.999998 v 0.9999997 h -0.999999 v 0.9999996 0.9999996 h 0.999999 v 1 h 0.999998 v 0.9999996 h 1.000003 0.999998 V 5.9999983 h 0.999998 v -1 V 3.9999987 2.9999991 1.9999994 H 73.999996 V 0.99999969 h -0.999998 z" />
			<path id="Backgrounds: Machine: M" class="background"
				d="M 64.999999,-2.03125e-8 V 0.99999969 H 64 v 0.99999961 0.9999998 0.9999996 0.9999996 1 h 0.999999 v 0.9999996 h 0.999998 V 5.9999983 h 1.000002 v 0.9999996 h 0.999999 V 5.9999983 h 0.999998 v 0.9999996 h 1.000002 V 5.9999983 h 0.999999 v -1 V 3.9999987 2.9999991 1.9999993 H 69.999998 V 0.99999969 H 68.999996 V -2.03125e-8 H 67.999998 V 0.99999969 H 66.999999 V -2.03125e-8 h -1.000002 z" />
		</g>
		<g id="Backgrounds: State">
			<path id="Backgrounds: State: e" class="background"
				d="M 59.000004,0.99999969 V 1.9999994 h -1.000002 v 0.9999997 h -0.999999 v 1 0.9999996 0.9999996 h 0.999999 v 1 h 1.000002 v 0.9999996 h 0.999998 V 6.9999983 h 0.999999 v -1 -0.9999996 h 1.000002 v -0.9999996 -1 H 61.000001 V 1.9999994 H 59.999999 V 0.99999969 Z" />
			<path id="Backgrounds: State: t2" class="background"
				d="M 55.000003,-2.03125e-8 V 0.99999969 H 54 v 0.99999961 0.9999998 0.9999996 0.9999996 1 h 1.000003 V 6.9999979 H 56.000001 57 V 5.9999983 h 1.000002 v -1 H 57 V 3.9999987 2.9999991 h 1.000002 V 1.9999993 H 57 V 0.99999969 H 56.000001 V -2.03125e-8 Z" />
			<path id="Backgrounds: State: a" class="background"
				d="M 52.000003,0.99999969 V 1.9999994 h -0.999998 v 0.9999997 h -1.000002 v 0.9999996 1 h 1.000002 v 0.9999996 h 0.999998 v 0.9999996 h 0.999999 1.000002 V 5.9999983 h 0.999999 v -0.9999996 -1 V 2.9999991 1.9999994 H 54.000004 V 0.99999969 h -1.000002 z" />
			<path id="Backgrounds: State: t" class="background"
				d="M 48.000002,-2.03125e-8 V 0.99999969 h -0.999998 v 0.99999961 0.9999998 0.9999996 0.9999996 1 h 0.999998 v 0.9999996 h 1.000002 0.999999 V 5.9999983 h 0.999998 v -1 H 50.000007 V 3.9999987 2.9999991 h 0.999998 V 1.9999993 H 50.000007 V 0.99999969 H 49.000004 V -2.03125e-8 Z" />
			<path id="Backgrounds: State: S" class="background"
				d="M 44.000004,-2.03125e-8 V 0.99999969 H 43.000006 V 1.9999994 2.9999991 3.9999987 h 0.999998 v 1 h -0.999998 v 0.9999996 h 0.999998 v 0.9999996 h 1.000003 0.999998 0.999999 V 5.9999983 h 1.000002 v -0.9999996 -1 -0.9999996 H 47.000004 V 1.9999994 h 1.000002 V 0.99999969 H 47.000004 V -2.03125e-8 h -0.999999 -0.999998 z" />
		</g>
		<g id="Backgrounds: Small">
			<path id="Backgrounds: Small: l2" class="background"
				d="M 39.000008,-2.03125e-8 V 0.99999969 H 38.00001 v 0.99999971 0.9999997 0.9999996 0.9999996 1 h 0.999998 v 0.9999996 h 0.999999 V 5.9999983 h 1.000002 v -1 V 3.9999987 2.9999991 1.9999994 0.99999969 H 40.000007 V -2.03125e-8 Z" />
			<path id="Backgrounds: Small: l" class="background"
				d="M 37.000008,-2.03125e-8 V 0.99999969 h -0.999999 v 0.99999971 0.9999997 0.9999996 0.9999996 1 h 0.999999 V 6.9999979 H 38.00001 V 5.9999983 h 0.999998 v -1 V 3.9999987 2.9999991 1.9999994 0.99999969 H 38.00001 V -2.03125e-8 Z" />
			<path id="Backgrounds: Small: a" class="background"
				d="M 34.000008,0.99999969 V 1.9999994 h -0.999999 v 0.9999997 h -1 v 0.9999996 0.9999996 h 1 v 1 h 0.999999 v 0.9999996 h 0.999999 1.000002 V 5.9999983 h 0.999999 v -1 V 3.9999987 2.9999991 1.9999994 H 36.000009 V 0.99999969 h -1.000002 z" />
			<path id="Backgrounds: Small: m" class="background"
				d="M 27.000011,0.99999969 V 1.9999993 h -1 v 0.9999998 0.9999996 0.9999996 1 h 1 V 6.9999979 H 28.00001 V 5.9999983 h 1 v 0.9999996 h 1 V 5.9999983 h 0.999999 v 0.9999996 h 1 V 5.9999983 h 1 v -1 -0.9999996 -0.9999996 h -1 V 1.9999993 h -1 V 0.99999969 H 30.00001 V 1.9999993 h -1 V 0.99999969 h -1 z" />
			<path id="Backgrounds: Small: S" class="background"
				d="M 23.000011,-2.03125e-8 V 0.99999969 H 22.000012 V 1.9999994 2.9999991 3.9999987 h 0.999999 v 1 h -0.999999 v 0.9999996 h 0.999999 v 0.9999996 h 1 1 1 V 5.9999983 h 1 v -0.9999996 -1 -0.9999996 h -1 V 1.9999994 h 1 V 0.99999969 h -1 V -2.03125e-8 h -1 -1 z" />
		</g>
		<g id="Backgrounds: Super">
			<path id="Backgrounds: Super: r" class="background"
				d="M 17.000013,0.99999969 V 1.9999994 h -0.999999 v 0.9999997 0.9999996 0.9999996 1 h 0.999999 v 0.9999996 h 1 V 5.9999983 h 1 v -1 -0.9999996 -0.9999996 h 0.999999 V 1.9999994 H 19.000013 V 0.99999969 h -1 z" />
			<path id="Backgrounds: Super: e" class="background"
				d="M 14.000014,0.99999969 V 1.9999994 h -1 v 0.9999997 h -1 v 1 0.9999996 0.9999996 h 1 v 1 h 1 v 0.9999996 h 1 V 6.9999983 h 0.999999 v -1 -0.9999996 h 1.000001 v -0.9999996 -1 H 16.000013 V 1.9999994 H 15.000014 V 0.99999969 Z" />
			<path id="Backgrounds: Super: p" class="background"
				d="M 9.0000152,0.99999969 V 1.9999994 H 8.0000157 v 0.9999997 1 0.9999996 0.9999996 1 H 9.0000152 V 7.9999979 H 10.000015 V 6.9999983 h 1 v -1 h 0.999999 V 4.9999987 h 1 v -0.9999996 -1 h -1 V 1.9999994 H 11.000015 V 0.99999969 h -1 z" />
			<path id="Backgrounds: Super: u" class="background"
				d="M 5.0000165,0.99999969 V 1.9999994 H 4.0000169 v 0.9999997 0.9999996 0.9999996 h 0.9999996 v 1 h 0.9999996 v 0.9999996 h 1 0.9999996 V 5.9999983 h 0.9999995 v -1 V 3.9999987 2.9999991 1.9999994 H 8.0000157 V 0.99999969 H 7.0000161 V 1.9999994 h -1 V 0.99999969 Z" />
			<path id="Backgrounds: Super: S" class="background"
				d="M 1.0000177,-2.03125e-8 V 0.99999969 H 1.8031869e-5 V 1.9999994 2.9999991 3.9999987 H 1.0000177 V 4.9999983 H 1.8031869e-5 v 1 H 1.0000177 v 0.9999996 h 1 0.9999996 0.9999996 V 5.9999983 h 1 v -1 -0.9999996 -0.9999996 h -1 V 1.9999994 h 1 V 0.99999969 h -1 V -2.03125e-8 H 3.0000173 2.0000177 Z" />
		</g>
	</g>
	<g id="Foregrounds">
		<g id="Foregrounds: Machine">
			<path id="Foregrounds: Machine: e" class="secondary"
				d="m 89.255859,1.4882812 c -0.03687,-3.68e-5 -0.06754,0.029619 -0.07031,0.066406 l -0.03711,0.2480469 c -0.0012,0.015725 -0.01087,0.031122 -0.02539,0.037109 l -0.197266,0.080078 c -0.01453,0.00607 -0.03104,0.00426 -0.04297,-0.00586 L 88.677734,1.7617188 c -0.0281,-0.024018 -0.06964,-0.022147 -0.0957,0.00391 l -0.11914,0.1191406 c -0.0261,0.026096 -0.02793,0.067633 -0.0039,0.095703 l 0.152344,0.203125 c 0.0103,0.011922 0.01384,0.028458 0.0078,0.042969 l -0.08203,0.1972656 c -0.006,0.014569 -0.01939,0.02612 -0.03516,0.027344 l -0.25,0.035156 c -0.03674,0.00282 -0.0644,0.033353 -0.06445,0.070312 v 0.1699219 c -2e-6,0.036911 0.02768,0.067429 0.06445,0.070312 l 0.25,0.035156 c 0.01561,0.00122 0.02918,0.01281 0.03516,0.027344 l 0.08203,0.1953125 c 0.0062,0.014518 0.0023,0.032961 -0.0078,0.044922 l -0.152344,0.203125 c -0.02393,0.02803 -0.02219,0.069602 0.0039,0.095703 l 0.11914,0.1191406 c 0.02606,0.026059 0.06776,0.027918 0.0957,0.00391 l 0.205078,-0.1523438 c 0.01197,-0.01017 0.02849,-0.011987 0.04297,-0.00586 L 89,3.3925781 V 4 5 6 h 1 V 5 h 1 1 V 4 3 H 91 V 4 H 90 V 3 h 1 V 2 h -0.796875 l 0.01563,-0.019531 c 0.02406,-0.027981 0.02213,-0.069644 -0.0039,-0.095703 L 90.095703,1.765625 C 90.069593,1.739523 90.02808,1.7377408 90,1.7617188 l -0.203125,0.1523437 c -0.012,0.010296 -0.02836,0.011916 -0.04297,0.00586 L 89.55664,1.8378915 c -0.01457,-0.00602 -0.02423,-0.01941 -0.02539,-0.035156 L 89.49414,1.5546886 c -0.0029,-0.03675 -0.03342,-0.066379 -0.07031,-0.066406 z M 90,6 v 1 h 1 V 6 Z M 89.339844,2.25 c 0.104579,9e-7 0.203391,0.041282 0.277344,0.1152344 0.074,0.073996 0.113195,0.170726 0.113281,0.2753906 -8.6e-5,0.1045886 -0.03928,0.2033481 -0.113281,0.2773438 C 89.582361,2.9527966 89.541805,2.9806738 89.498047,3 H 89.181641 C 89.137735,2.9806865 89.097443,2.9529112 89.0625,2.9179688 88.98855,2.8440158 88.947261,2.745218 88.947266,2.640625 88.947174,2.5359557 88.98855,2.4391863 89.0625,2.3652344 89.1365,2.2912324 89.235131,2.2499523 89.339844,2.25 Z"
			/>
			<path id="Foregrounds: Machine: n" class="secondary"
				d="m 87.107422,1.734375 c -0.0035,5.474e-4 -0.0064,0.00266 -0.0098,0.00391 l -0.123047,0.044922 c -0.02726,0.00983 -0.04285,0.038479 -0.03516,0.066406 L 86.970703,2 H 86 85.050781 84.998047 v 0.1503906 l -0.298828,0.125 V 2.375 L 84.998047,2.5 v 0.1503906 l -0.298828,0.125 V 2.875 L 84.998047,3 v 0.1503906 l -0.298828,0.125 V 3.375 L 84.998047,3.5 v 0.1503906 l -0.298828,0.125 V 3.875 L 84.998047,4 v 0.1503906 l -0.298828,0.125 V 4.375 L 84.998047,4.5 v 0.1503906 l -0.298828,0.125 V 4.875 L 84.998047,5 v 0.1503906 l -0.298828,0.125 V 5.375 L 84.998047,5.5 v 0.1503906 l -0.298828,0.125 V 5.875 L 85,6 h 1 V 5 4 3 h 0.994141 L 87,3.0039062 V 4 5 6 h 1 V 5 4 3.0644531 l 0.06445,0.019531 c 0.02713,0.01022 0.05606,-0.0012 0.06836,-0.027344 l 0.05664,-0.1210937 c 0.01239,-0.026232 0.0017,-0.055987 -0.02344,-0.070312 L 88,2.7539062 c -0.0107,-0.00623 -0.01619,-0.016943 -0.01563,-0.029297 l 0.0078,-0.1679688 c 5.62e-4,-0.012266 0.0084,-0.022339 0.01953,-0.027344 l 0.173828,-0.09375 c 0.02632,-0.011877 0.03911,-0.041092 0.0293,-0.068359 l -0.04492,-0.125 c -0.0098,-0.027331 -0.03855,-0.042847 -0.06641,-0.035156 l -0.19336,0.039063 c -0.01194,0.00323 -0.02496,-5.793e-4 -0.0332,-0.00977 L 87.763672,2.1132812 c -0.0083,-0.00923 -0.01021,-0.021662 -0.0059,-0.033203 l 0.05859,-0.1914062 c 0.01033,-0.02699 -0.0032,-0.058094 -0.0293,-0.070312 l -0.11914,-0.054687 c -0.02627,-0.012271 -0.05795,-0.00368 -0.07227,0.021484 l -0.109375,0.1660157 c -0.0061,0.010847 -0.01881,0.018141 -0.03125,0.017578 l -0.166016,-0.00781 c -0.01243,-5.734e-4 -0.02431,-0.00812 -0.0293,-0.019531 l -0.0918,-0.1738281 C 87.157478,1.7445 87.131631,1.7305434 87.107422,1.734375 Z m 0.21875,0.5683594 c 0.04978,-0.00258 0.100054,0.00748 0.146484,0.029297 0.07421,0.034989 0.130302,0.09671 0.158203,0.1738282 0.02767,0.077241 0.02313,0.162085 -0.01172,0.2363281 -0.03495,0.074172 -0.09662,0.1303909 -0.173829,0.1582031 -0.0772,0.027808 -0.160081,0.023192 -0.234374,-0.011719 -0.07421,-0.034984 -0.13039,-0.096718 -0.158204,-0.1738281 -0.02786,-0.077235 -0.02319,-0.1601692 0.01172,-0.234375 0.03494,-0.074249 0.09659,-0.1305163 0.173828,-0.1582032 0.0289,-0.010446 0.05802,-0.017983 0.08789,-0.019531 z"
			/>
			<path id="Foregrounds: Machine: i" class="secondary"
				d="m 83.476562,0.97265625 c -0.01448,0.002502 -0.02582,0.0146149 -0.0293,0.0292968 l -0.0332,0.1367188 c -0.05431,0.012591 -0.104468,0.033847 -0.15039,0.0625 l -0.121094,-0.074219 c -0.01467,-0.00905 -0.03276,-0.0063 -0.04492,0.00586 l -0.06445,0.0625 c -0.01221,0.012208 -0.01486,0.032203 -0.0059,0.046875 l 0.07422,0.1191406 c -0.02866,0.04595 -0.04992,0.096086 -0.0625,0.1503907 l -0.136718,0.033203 c -0.01678,0.00399 -0.0293,0.019906 -0.0293,0.037109 v 0.089844 c 0,0.017272 0.01249,0.031192 0.0293,0.035156 l 0.136718,0.033203 c 0.01259,0.054307 0.03384,0.104443 0.0625,0.1503906 l -0.07227,0.1210939 c -0.0091,0.014675 -0.0082,0.032758 0.0039,0.044922 l 0.06445,0.064453 c 0.01221,0.012231 0.03022,0.01298 0.04492,0.00391 l 0.121094,-0.074219 c 0.04592,0.028655 0.09609,0.049911 0.15039,0.0625 l 0.0332,0.1386718 c 0.0039,0.016805 0.0179,0.027344 0.03516,0.027344 h 0.08984 c 0.01723,0 0.03315,-0.010539 0.03711,-0.027344 l 0.03125,-0.1386718 c 0.05428,-0.012591 0.106415,-0.033845 0.152344,-0.0625 L 83.912109,2.125 c 0.01469,0.00907 0.03468,0.00829 0.04687,-0.00391 l 0.0625,-0.064453 c 0.01219,-0.012187 0.01487,-0.030247 0.0059,-0.044922 l -0.07425,-0.12109 c 0.02866,-0.045927 0.04992,-0.096107 0.0625,-0.1503906 l 0.136719,-0.033203 c 0.01682,-0.00398 0.0293,-0.017904 0.0293,-0.035156 v -0.089844 c -3e-6,-0.017249 -0.01249,-0.033142 -0.0293,-0.037109 l -0.136719,-0.03125 c -0.01259,-0.054304 -0.03385,-0.1063961 -0.0625,-0.1523438 l 0.07422,-0.1191406 c 0.0091,-0.014718 0.0063,-0.034665 -0.0059,-0.046875 l -0.0625,-0.0625 c -0.01219,-0.012187 -0.03218,-0.014933 -0.04687,-0.00586 l -0.11914,0.074219 c -0.04595,-0.028653 -0.09804,-0.049912 -0.152344,-0.0625 l -0.03125,-0.1367188 c -0.0039,-0.0167815 -0.01988,-0.0292968 -0.03711,-0.0292968 h -0.08984 c -0.0022,0 -0.0038,-3.5743e-4 -0.0059,0 z m 0.01563,0.31054685 c 0.01156,-0.00117 0.02329,0 0.03516,0 0.189907,0 0.34375,0.1538838 0.34375,0.34375 0,0.1898637 -0.153843,0.34375 -0.34375,0.34375 -0.189843,0 -0.34375,-0.1538863 -0.34375,-0.34375 0,-0.1779972 0.135256,-0.3261431 0.308594,-0.34375 z m 0.02344,0.125 c -0.115117,0.00584 -0.205078,0.1021653 -0.205078,0.21875 0,0.120346 0.09648,0.2167969 0.216797,0.2167969 0.120349,0 0.21875,-0.096449 0.21875,-0.2167969 0,-0.1203485 -0.0984,-0.21875 -0.21875,-0.21875 -0.0038,0 -0.008,-1.882e-4 -0.01172,0 z m 0.002,0.1113281 c 0.0036,-3.65e-4 0.0061,0 0.0098,0 0.05903,0 0.107422,0.048391 0.107422,0.1074219 0,0.059032 -0.04839,0.1054688 -0.107422,0.1054688 -0.05903,0 -0.107422,-0.04644 -0.107422,-0.1054688 0,-0.055342 0.04376,-0.1019459 0.09766,-0.1074219 z M 83,3 v 1 1 1 h 1 V 5 4 3 Z"
			/>
			<path id="Foregrounds: Machine: h" class="secondary"
				d="m 79,1 v 1 h -0.002 v 0.1503906 l -0.298828,0.125 V 2.375 L 78.998047,2.5 v 0.1503906 l -0.298828,0.125 V 2.875 L 78.998047,3 v 0.1503906 l -0.298828,0.125 V 3.375 L 78.998047,3.5 v 0.1503906 l -0.298828,0.125 V 3.875 L 78.998047,4 v 0.1503906 l -0.298828,0.125 V 4.375 L 78.998047,4.5 v 0.1503906 l -0.298828,0.125 V 4.875 L 78.998047,5 v 0.1503906 l -0.298828,0.125 V 5.375 L 78.998047,5.5 v 0.1503906 l -0.298828,0.125 V 5.875 L 79,6 h 1 V 5 4 3 h 1 V 2 H 80 V 1 Z m 2,2 v 1 1 1 h 1 V 5 4 3 Z"
			/>
			<path id="Foregrounds: Machine: c" class="secondary"
				d="m 76.285156,1.5332031 c -0.01908,-6.46e-4 -0.03768,0.00294 -0.05664,0.00977 l -0.347657,0.125 c -0.07605,0.027306 -0.117261,0.1076832 -0.0957,0.1855468 l 0.111328,0.5449219 c 0.0092,0.033019 -0.0016,0.068706 -0.02734,0.091797 l -0.345703,0.3144531 c -0.0257,0.023087 -0.06138,0.029697 -0.09375,0.017578 l -0.52735,-0.1601605 c -0.07536,-0.028647 -0.160759,0.00695 -0.195313,0.080078 l -0.15625,0.3339844 c -0.03451,0.073157 -0.0076,0.1594454 0.0625,0.1992187 L 75,3.53125 V 4 4.2324219 l -0.447266,0.2402343 c -0.07367,0.033059 -0.109386,0.1158864 -0.08203,0.1914063 l 0.125,0.3476563 c 0.02723,0.07603 0.107845,0.1188752 0.185547,0.097656 L 75.318359,5 h 0.0625 c 0.01438,0.00495 0.02851,0.011727 0.03906,0.023437 l 0.314453,0.3457031 c 0.02339,0.025618 0.02986,0.061556 0.01758,0.09375 L 75.591796,5.992187 c -0.02838,0.07552 0.0049,0.1589703 0.07813,0.1933594 l 0.333984,0.15625 c 0.07332,0.034554 0.16121,0.00747 0.201172,-0.0625 L 76.390625,6 H 77 77.21875 l 0.181641,0.3398438 c 0.03336,0.073691 0.117502,0.1093516 0.193359,0.082031 l 0.345703,-0.125 c 0.07621,-0.027306 0.119024,-0.1076605 0.09766,-0.1855469 L 78,5.9296875 V 5.4316406 l 0.296875,-0.2714844 -0.611328,-0.8125 c -0.0978,0.2069894 -0.269132,0.3636941 -0.484375,0.4414063 -0.215301,0.077373 -0.447096,0.066208 -0.654297,-0.03125 -0.20717,-0.097441 -0.363707,-0.2689199 -0.441406,-0.484375 -0.07739,-0.2154345 -0.06797,-0.4492406 0.0293,-0.65625 0.09741,-0.20735 0.271043,-0.3638836 0.486328,-0.4414063 0.215415,-0.077564 0.447288,-0.066511 0.654297,0.03125 0.207016,0.0971 0.363708,0.2689383 0.441406,0.484375 l 0.685547,-0.75 -0.314453,-0.3457031 c -0.02339,-0.025657 -0.03024,-0.061383 -0.01758,-0.09375 l 0.160157,-0.5292969 c 0.02838,-0.075692 -0.0046,-0.15912 -0.07813,-0.1933593 L 77.818359,1.6210938 c -0.07318,-0.034401 -0.161249,-0.00582 -0.201171,0.064453 L 77.408203,2 H 77 76.623047 L 76.421875,1.625 c -0.02502,-0.05524 -0.07949,-0.089859 -0.136719,-0.091797 z"
			/>
			<path id="Foregrounds: Machine: a" class="secondary"
				d="m 72.333984,1.75 c -0.07377,0 -0.13729,0.051306 -0.154296,0.1230469 L 72.068359,2.34375 c -0.118518,0.034268 -0.231966,0.080086 -0.33789,0.1386719 L 71.320312,2.2285156 c -0.06278,-0.038662 -0.145098,-0.028731 -0.197265,0.023437 L 70.851562,2.523437 c -0.0521,0.052184 -0.06209,0.1326088 -0.02344,0.1953125 l 0.253906,0.4121094 c -0.0585,0.1059153 -0.104504,0.2175033 -0.138672,0.3359375 l -0.4707,0.1113286 c -0.07172,0.017068 -0.123047,0.082411 -0.123047,0.15625 v 0.3828125 c 0,0.073755 0.05129,0.1393459 0.123047,0.15625 l 0.470703,0.1113281 c 0.03427,0.1185274 0.08021,0.2301157 0.138672,0.3359375 l -0.253906,0.4121094 c -0.03867,0.062878 -0.02869,0.1431201 0.02344,0.1953125 l 0.271485,0.2714844 c 0.0522,0.052184 0.134547,0.062272 0.197265,0.023437 l 0.410157,-0.2539063 c 0.105918,0.058489 0.219453,0.1044882 0.33789,0.1386719 l 0.111329,0.4707031 c 0.01707,0.071927 0.08052,0.1230469 0.154296,0.1230469 h 0.384766 c 0.06602,0 0.124759,-0.041435 0.148438,-0.1015625 H 73 73.949219 74 74.002 V 5.8496094 l 0.298828,-0.125 V 5.625 L 74.001953,5.5 V 5.3496094 l 0.298828,-0.125 V 5.125 L 74.001953,5 V 4.8496094 l 0.298828,-0.125 V 4.625 L 74.001953,4.5 V 4.3496094 l 0.298828,-0.125 V 4.125 L 74.001953,4 V 3.8496094 l 0.298828,-0.125 V 3.625 L 74.001953,3.5 V 3.3496094 l 0.298828,-0.125 V 3.125 L 74.001953,3 V 2.8496094 l 0.298828,-0.125 V 2.625 L 74.001953,2.5 V 2.3496094 l 0.298828,-0.125 V 2.125 L 74,2 H 73 72.90234 L 72.87304,1.8730469 C 72.855977,1.8013059 72.792489,1.75 72.71875,1.75 Z m 0.191407,1.7753906 c 0.221084,0 0.40039,0.1793199 0.40039,0.4003906 0,0.2210692 -0.17933,0.4003907 -0.40039,0.4003907 -0.220992,0 -0.400391,-0.1793203 -0.400391,-0.4003907 0,-0.2210691 0.179415,-0.4003906 0.400391,-0.4003906 z"
			/>
			<path id="Foregrounds: Machine: M" class="primary"
				d="m 65,1 v 1 h -0.002 v 0.1503906 l -0.298828,0.125 V 2.375 L 64.998047,2.5 v 0.1503906 l -0.298828,0.125 V 2.875 L 64.998047,3 v 0.1503906 l -0.298828,0.125 V 3.375 L 64.998047,3.5 v 0.1503906 l -0.298828,0.125 V 3.875 L 64.998047,4 v 0.1503906 l -0.298828,0.125 V 4.375 L 64.998047,4.5 v 0.1503906 l -0.298828,0.125 V 4.875 L 64.998047,5 v 0.1503906 l -0.298828,0.125 V 5.375 L 64.998047,5.5 v 0.1503906 l -0.298828,0.125 V 5.875 L 65,6 h 0.01953 l 0.117188,0.4980469 c 0.01806,0.076109 0.08601,0.1289062 0.164062,0.1289062 h 0.40625 c 0.07803,0 0.146101,-0.052798 0.164063,-0.1289062 L 65.988281,6 H 66 V 5 4 3 2 h 0.998047 v 0.1503906 l -0.298828,0.125 V 2.375 L 66.998047,2.5 v 0.1503906 l -0.298828,0.125 V 2.875 L 66.998047,3 v 0.1503906 l -0.298828,0.125 V 3.375 L 66.998047,3.5 v 0.1503906 l -0.298828,0.125 V 3.875 L 66.998047,4 v 0.1503906 l -0.298828,0.125 V 4.375 L 66.998047,4.5 v 0.1503906 l -0.298828,0.125 V 4.875 L 66.998047,5 v 0.1503906 l -0.298828,0.125 V 5.375 L 66.998047,5.5 v 0.1503906 l -0.298828,0.125 V 5.875 L 67,6 h 0.01953 l 0.117188,0.4980469 c 0.01806,0.076109 0.08601,0.1289062 0.164062,0.1289062 h 0.40625 c 0.07803,0 0.146101,-0.052798 0.164063,-0.1289062 L 67.988281,6 H 68 V 5 4 3 2 H 67.050781 67 V 1 h -1 z m 3,1 h 0.998047 v 0.1503906 l -0.298828,0.125 V 2.375 L 68.998047,2.5 v 0.1503906 l -0.298828,0.125 V 2.875 L 68.998047,3 v 0.1503906 l -0.298828,0.125 V 3.375 L 68.998047,3.5 v 0.1503906 l -0.298828,0.125 V 3.875 L 68.998047,4 v 0.1503906 l -0.298828,0.125 V 4.375 L 68.998047,4.5 v 0.1503906 l -0.298828,0.125 V 4.875 L 68.998047,5 v 0.1503906 l -0.298828,0.125 V 5.375 L 68.998047,5.5 v 0.1503906 l -0.298828,0.125 V 5.875 L 69,6 h 0.01953 l 0.117188,0.4980469 c 0.01806,0.076109 0.08601,0.1289062 0.164062,0.1289062 h 0.40625 c 0.07803,0 0.146101,-0.052798 0.164063,-0.1289062 L 69.988281,6 h 0.01367 V 5.8496094 l 0.298828,-0.125 V 5.625 L 70.001953,5.5 V 5.3496094 l 0.298828,-0.125 V 5.125 L 70.001953,5 V 4.8496094 l 0.298828,-0.125 V 4.625 L 70.001953,4.5 V 4.3496094 l 0.298828,-0.125 V 4.125 L 70.001953,4 V 3.8496094 l 0.298828,-0.125 V 3.625 L 70.001953,3.5 V 3.3496094 l 0.298828,-0.125 V 3.125 L 70.001953,3 V 2.8496094 l 0.298828,-0.125 V 2.625 L 70.001953,2.5 V 2.3496094 l 0.298828,-0.125 V 2.125 L 70,2 H 69.949219 69.050781 69 V 1 h -1 z"
			/>
		</g>
		<g id="Foregrounds: State">
			<path id="Foregrounds: State: e" class="secondary"
				d="m 58.999993,2.0000011 h 1.000002 v 1.0000011 h -1.000002 z m 2.000004,3.0000037 H 59.999995 58.999993 V 6.0000059 H 57.999994 V 5.0000048 4.0000036 3.0000022 h 0.999999 v 1.0000014 h 1.000002 V 3.0000022 h 1.000002 v 1.0000014 z m -2.000004,1.0000011 h 1.000002 v 1.0000014 h -1.000002 z" />
			<path id="Foregrounds: State: t2" class="secondary"
				d="M 56.000001,4.0000036 V 5.0000048 H 57 V 6.0000059 H 56.000001 54.999999 V 5.0000048 4.0000036 3.0000022 2.0000011 0.9999998 h 1.000002 V 2.0000011 H 57 v 1.0000011 h -0.999999 z" />
			<path id="Foregrounds: State: a" class="secondary"
				d="M 51.999996,6.0000059 V 5.0000048 h 1.000002 V 4.0000036 3.0000022 H 51.999996 V 2.0000011 H 52.999998 54 v 1.0000011 1.0000014 1.0000012 1.0000011 h -1.000002 z m 0,-1.0000011 H 50.999997 V 4.0000036 3.0000022 h 0.999999 v 1.0000014 z" />
			<path id="Foregrounds: State: t" class="secondary"
				d="m 50.000003,2.0000011 v 1.0000011 h -0.999999 v 1.0000014 1.0000012 h 0.999999 V 6.0000059 H 49.000004 48.000006 V 5.0000048 4.0000036 3.0000022 2.0000011 0.9999998 h 0.999998 v 1.0000013 z" />
			<path id="Foregrounds: State: S" class="primary"
				d="M 44.000001,6.0000059 V 5.0000048 h 1.000002 0.999998 V 4.0000036 H 45.000003 44.000001 V 3.0000022 2.0000011 0.9999998 h 1.000002 0.999998 1.000003 v 1.0000013 h -1.000003 -0.999998 v 1.0000011 h 0.999998 1.000003 v 1.0000014 1.0000012 1.0000011 h -1.000003 -0.999998 z" />
		</g>
		<g id="Foregrounds: Small">
			<path id="Foregrounds: Small: l2" class="secondary"
				d="M 39.750006,5.4999983 H 39.250005 V 1.4999995 h 0.500001 z" />
			<path id="Foregrounds: Small: l" class="secondary"
				d="m 37.750006,1.4999996 h -0.499998 v 3.9999987 h 0.499998 z" />
			<path id="Foregrounds: Small: a" class="secondary"
				d="m 35.000018,3.0000022 h -1.000001 v -0.500003 h 1.499991 V 5.4999983 H 34.000017 V 5.0000048 h 1.000001 z M 34.000017,5.0000048 H 33.500008 V 3.0000022 h 0.500009 z" />
			<path id="Foregrounds: Small: m" class="secondary"
				d="M 28.000018,5.500001 H 27.50001 V 2.4999992 h 1.75 v 0.500003 h -1.249992 z m 1.749991,0 H 29.25001 V 3.0000022 h 0.499999 z m 0,-3.0000018 h 1.250013 v 0.500003 h -1.250013 z m 1.75,2.9999965 -0.499987,5.3e-6 V 3.0000022 l 0.499987,-5.3e-6 z" />
			<path id="Foregrounds: Small: S" class="primary"
				d="m 23.500011,1.4999995 v 2.2249994 h 1.5 v 1.2749994 h -2 v 0.5 h 2.5 V 3.2499989 h -1.5 V 1.9999994 H 26.00001 V 1.4999995 Z" />
		</g>
		<g id="Foregrounds: Super">
			<path id="Foregrounds: Super: r" class="secondary"
				d="M 18.000031,6.0000059 H 17.00003 V 5.0000048 4.0000036 3.0000022 c 0.0013,-0.4990453 0.500972,-0.9963384 1.000001,-1.0000011 l 1.999981,-1.7e-6 c 0.0043,0.498234 -0.495196,1.0019723 -0.999979,1.0000028 h -1.000002 v 1.0000014 1.0000012 z" />
			<path id="Foregrounds: Super: e" class="secondary"
				d="m 15.000028,4.0000032 10e-7,-1.000001 h 1.000002 l -1e-6,1.0000011 c -0.0013,0.5107635 -0.494109,1.0039071 -1.000003,1.000001 H 14.000026 V 6.0000054 H 13.000025 V 5.0000043 l 10e-7,-1.000001 10e-7,-1.0000011 L 14,3 l 2.5e-5,-1.0000123 h 1.000002 v 1.000014 l -1,3e-7 v 1.0000013 z m -1.000002,2.0000022 0.999986,-7.6e-6 c 0.507424,0.00166 1.003855,0.4998394 0.999999,0.9999996 l -1.999985,9.4e-6 z" />
			<path id="Foregrounds: Super: p" class="secondary"
				d="M 10.000025,7.0000073 C 9.9950878,7.5122061 9.497989,7.9982668 9.0000236,7.9999975 V 6.0000059 5.0000048 4.0000036 3.0000022 C 9.0052423,2.504863 9.5034315,2.0016927 10.000025,2.0000011 h 1.000002 v 1.0000011 h -1.000002 v 1.0000014 1.0000012 h 1.000002 V 6.0000059 H 10.000025 Z M 12.000028,5.0000048 H 11.000027 V 4.0000036 3.0000022 h 1.000001 v 1.0000014 z" />
			<path id="Foregrounds: Super: u" class="secondary"
				d="M 6.0000221,4.0000036 V 5.0000048 H 5.000021 V 4.0000036 3.0000025 2.0000011 C 5.0016591,1.4950333 5.4995879,0.99801891 6.0000165,0.99999969 l 5.6e-6,2.00000281 z m 2.000003,0 V 5.0000048 C 8.0004529,5.5170413 7.5101539,6.0000059 7.0000236,6.0000059 H 6.0000221 V 5.0000048 H 7.0000236 V 4.0000036 3.0000025 2.0000011 C 6.9988395,1.4930572 7.4991252,1.0003114 8.0000251,0.99999969 V 3.0000025 Z" />
			<path id="Foregrounds: Super: S" class="primary"
				d="M 1.8031869e-5,6.0000059 C -0.0040727,5.4975053 0.50370128,5.0016628 1.0000177,5.0000048 H 2.0000188 3.0000203 V 4.0000036 H 2.0000188 1.0000177 V 3.0000025 2.0000011 C 1.0013304,1.5009559 1.5041378,0.99999984 2.0000188,0.99999984 h 1.0000015 1.9999962 c 0,0.49909036 -0.4998333,1.00118286 -0.9999951,1.00000126 H 3.0000203 2.0000188 V 3.0000025 H 3.0000203 4.0000214 V 4.0000036 5.0000048 C 4.0026153,5.49905 3.503714,6.0000059 3.0000203,6.0000059 H 2.0000188 Z" />
		</g>
	</g>
	<style id="background-colour" type="text/css">
		.background{ fill: #ffffff; fill-opacity: 0; }
	</style>
	<style id="primary-colour" type="text/css">
		.primary{ fill: #800000; stroke-width: 0.1; stroke: #ffffff; }
	</style>
	<style id="secondary-colour" type="text/css">
		.secondary{ fill: #1a1a1a; stroke-width: 0.1; stroke: #ffffff;  }
	</style>
</svg>
